<?xml version="1.0" standalone="no"?>
<!DOCTYPE svg PUBLIC "-//W3C//DTD SVG 20010904//EN"
 "http://www.w3.org/TR/2001/REC-SVG-20010904/DTD/svg10.dtd">
<svg version="1.0" xmlns="http://www.w3.org/2000/svg"
 width="545.000000pt" height="711.000000pt" viewBox="0 0 545.000000 711.000000"
 preserveAspectRatio="xMidYMid meet">

<g transform="translate(0.000000,711.000000) scale(0.100000,-0.100000)"
fill="#000000" stroke="none">
<path d="M3775 7091 c-4 -12 -12 -18 -21 -14 -8 3 -14 -1 -14 -11 0 -9 6 -13
14 -10 19 7 32 -16 15 -26 -7 -5 -16 -7 -20 -4 -11 6 -20 -95 -19 -202 2 -85
-6 -265 -13 -328 -2 -22 -4 -21 158 -30 55 -3 116 -8 135 -12 l35 -6 0 247 c0
193 -3 248 -14 254 -10 7 -10 13 -2 29 6 11 11 36 11 56 0 27 -6 39 -29 55
-25 18 -44 21 -129 21 -91 0 -101 -2 -107 -19z"/>
<path d="M2316 6674 c-8 -22 -8 -26 4 -19 6 4 5 -5 -2 -19 -9 -22 -18 -26 -54
-26 -24 0 -45 -4 -48 -9 -3 -5 1 -8 10 -7 9 0 20 -9 25 -21 5 -13 5 -23 0 -23
-5 0 -11 6 -14 14 -10 25 -117 7 -117 -20 0 -10 -12 -14 -43 -14 -51 0 -62 -7
-42 -26 18 -18 29 -18 21 1 -7 20 11 19 31 -1 20 -20 7 -34 -38 -40 -34 -5
-85 -46 -91 -73 -2 -8 -14 -25 -28 -38 -21 -20 -22 -23 -4 -14 19 9 20 7 16
-21 -4 -25 -2 -30 11 -25 12 4 15 0 13 -20 -3 -30 -48 -58 -74 -48 -18 8 -236
17 -797 34 -284 9 -451 15 -960 35 -29 1 -30 0 -35 -54 l-5 -55 -45 -5 -45 -5
-2 -389 -3 -389 39 6 c33 4 40 2 44 -15 4 -14 12 -19 29 -16 17 2 23 -2 23
-17 0 -11 -8 -21 -18 -23 -10 -2 -17 3 -17 12 0 18 -20 32 -29 20 -3 -5 -15
-14 -26 -20 -11 -6 -21 -21 -23 -33 -2 -11 -8 -21 -13 -21 -5 0 -9 -31 -9 -69
0 -68 1 -70 28 -74 41 -8 61 -5 66 10 8 20 85 17 93 -3 9 -23 -13 -33 -71 -30
-37 1 -55 -3 -68 -16 -10 -10 -25 -18 -33 -18 -18 0 -20 -41 -3 -58 9 -9 9
-12 0 -12 -8 0 -11 -113 -11 -449 l-1 -449 29 -31 c24 -25 37 -31 73 -31 57 0
88 -9 88 -26 0 -8 -1 -14 -2 -14 -2 -1 -21 -3 -43 -6 -22 -4 -44 -11 -48 -18
-6 -8 -10 -8 -14 2 -2 7 -22 12 -44 12 l-39 0 0 -246 0 -247 63 9 c34 4 234 8
445 8 l382 1 0 -27 c0 -20 4 -26 15 -22 22 9 19 2 -15 -36 -47 -52 -40 -61 25
-34 61 25 52 8 -13 -25 -68 -34 -122 -84 -122 -112 0 -22 4 -23 31 -8 11 6 25
8 32 6 7 -2 -4 -12 -23 -22 -56 -28 -90 -65 -90 -98 0 -17 -12 -45 -27 -66
-20 -25 -28 -48 -28 -76 0 -31 -4 -40 -17 -39 -11 1 -18 -9 -23 -33 -3 -19
-17 -55 -31 -80 -26 -50 -25 -66 4 -40 20 18 42 22 42 8 0 -13 -22 -29 -53
-36 -45 -12 -78 -59 -76 -113 1 -26 -6 -67 -14 -92 -9 -25 -19 -94 -23 -155
l-6 -110 42 -82 c46 -92 119 -165 225 -226 33 -19 103 -62 157 -95 53 -34 120
-71 150 -82 29 -12 73 -33 98 -48 70 -41 249 -127 315 -151 106 -39 103 -30
67 -178 -32 -133 -38 -178 -47 -353 -10 -188 -19 -256 -71 -515 -32 -163 -62
-417 -55 -471 0 -6 14 -14 29 -17 48 -10 112 -58 112 -84 l0 -23 1070 0 c707
0 1070 3 1070 10 0 6 7 10 15 10 8 0 15 -4 15 -8 0 -5 117 -10 260 -11 l260
-2 -6 48 c-3 26 -10 61 -15 77 -8 24 -5 33 21 63 17 18 30 40 30 47 0 8 9 16
20 19 15 4 20 14 20 39 0 52 -27 252 -49 358 -11 52 -31 160 -46 240 -14 80
-44 217 -66 304 l-40 159 68 69 c37 38 102 94 143 126 88 67 159 125 246 205
35 31 68 57 74 57 6 0 34 24 64 53 29 28 72 70 97 93 24 22 76 78 114 124 39
47 91 107 116 135 57 64 84 120 104 215 27 125 28 136 12 171 -9 19 -21 60
-27 93 -10 49 -19 65 -58 103 -26 25 -37 40 -25 34 31 -16 35 -14 21 9 -7 11
-17 18 -23 16 -6 -2 -17 4 -25 12 -13 14 -12 15 2 10 13 -6 16 3 16 60 -1 74
-29 135 -70 148 -12 3 -29 14 -37 22 -14 14 -13 15 17 9 35 -7 38 -3 19 39
-29 68 -71 116 -126 144 -54 28 -55 29 -24 30 43 0 52 19 22 43 -13 11 -23 24
-21 29 5 17 -9 48 -21 48 -7 0 -21 7 -32 15 -18 14 -18 16 -2 32 14 14 17 15
17 3 0 -12 2 -12 9 -2 6 10 14 1 28 -30 l21 -43 83 -1 c189 -3 536 -15 562
-20 l27 -6 0 231 c0 158 -3 232 -11 237 -6 3 -15 0 -20 -7 -6 -11 -9 -10 -14
3 -4 9 -15 18 -26 21 -11 3 -18 11 -17 18 2 8 -8 15 -21 17 -35 5 -93 -7 -85
-19 8 -14 -15 -39 -38 -39 -14 0 -18 6 -16 27 2 20 -2 28 -16 31 -11 2 -16 0
-12 -7 4 -7 -1 -11 -13 -11 -12 0 -21 -4 -21 -10 0 -5 -7 -10 -15 -10 -8 0
-12 6 -9 14 3 9 -3 17 -16 21 -25 8 -33 2 -35 -23 -1 -23 -14 -42 -27 -42 -6
0 -8 13 -6 30 3 17 0 34 -5 37 -5 3 -64 9 -131 14 -66 4 -130 9 -141 11 -17 3
-21 -6 -32 -62 -15 -78 -20 -222 -9 -269 7 -31 6 -33 -10 -27 -11 4 -26 9 -34
11 -28 6 -100 37 -100 44 0 3 14 7 30 8 17 1 30 -2 30 -7 0 -6 5 -10 11 -10 6
0 9 8 7 18 -2 9 -9 16 -16 15 -6 -2 -9 4 -6 12 4 9 2 21 -4 28 -6 7 -13 25
-16 40 -9 50 -17 66 -37 72 -11 4 -22 19 -26 35 -3 16 -12 31 -20 34 -9 4 -12
13 -8 25 4 14 -1 23 -21 33 -15 7 -35 29 -46 48 -16 30 -16 35 -3 38 19 4 19
32 1 58 -12 15 -17 17 -27 7 -19 -19 -26 -16 -38 18 -15 44 -14 51 9 44 29 -9
117 19 175 56 45 29 59 33 141 37 71 3 98 1 122 -12 18 -9 32 -21 32 -27 0 -5
11 -14 25 -19 37 -14 32 -47 -7 -41 -10 1 -58 -70 -58 -86 0 -7 5 -13 12 -13
17 0 -2 -16 -29 -25 -18 -5 -22 -3 -17 8 6 18 -11 31 -27 21 -8 -4 -7 -9 2
-14 10 -7 10 -11 -1 -24 -7 -9 -11 -18 -9 -20 5 -5 310 -21 384 -21 73 1 103
11 108 38 3 21 4 21 15 -5 11 -28 13 -28 102 -28 l91 0 -4 183 c-3 100 -6 190
-7 200 -2 21 -19 22 -48 1 -12 -8 -26 -13 -31 -10 -15 9 -61 -18 -61 -37 0 -9
-6 -26 -12 -37 -17 -26 2 -40 53 -40 22 0 39 -6 42 -14 8 -19 -25 -26 -112
-25 -61 1 -71 4 -77 21 -4 14 1 24 15 34 12 9 21 19 21 25 0 18 -45 9 -58 -12
-10 -15 -19 -19 -35 -14 -70 21 -142 33 -148 23 -4 -7 -9 -6 -14 2 -4 7 -13
-1 -25 -22 -11 -22 -26 -34 -43 -36 -22 -3 -26 1 -32 38 -4 25 -14 44 -23 47
-10 3 -27 15 -38 25 -15 13 -24 16 -29 9 -10 -17 -24 -3 -18 18 4 14 -4 24
-27 36 -41 21 -75 16 -75 -10 0 -15 -6 -19 -25 -17 -14 1 -34 4 -45 5 -26 3
-31 -29 -8 -55 18 -21 18 -21 -12 -14 -16 4 -38 16 -48 27 -25 27 -97 27 -97
0 0 -12 -9 -20 -25 -23 -16 -3 -25 -1 -25 7 0 7 -7 18 -15 25 -12 10 -13 7 -5
-19 9 -32 13 -75 11 -125 -2 -46 -13 -22 -16 33 -3 50 -32 141 -45 141 -9 0
-30 93 -30 131 0 17 -5 29 -13 29 -7 0 -19 16 -26 35 -12 34 -33 45 -46 24 -5
-7 -14 -5 -28 4 -12 8 -51 17 -87 21 -36 4 -83 13 -105 20 -22 8 -74 24 -115
36 -41 12 -84 26 -95 31 -52 23 -205 72 -248 80 -27 4 -55 13 -63 20 -8 7 -37
16 -65 20 -27 4 -56 15 -65 23 -8 9 -19 16 -23 16 -5 0 -19 11 -33 23 -27 25
-48 87 -29 87 11 0 71 -60 71 -72 0 -11 70 -48 91 -48 13 0 19 7 19 24 0 28
16 36 70 36 28 0 42 6 54 23 14 20 16 21 26 5 6 -10 19 -18 29 -18 23 0 33
-10 22 -24 -4 -6 -11 -18 -14 -27 -5 -15 -2 -15 24 -6 36 14 46 42 25 66 -14
16 -16 37 -10 157 4 94 11 146 21 162 11 19 14 75 14 300 -1 258 6 346 26 361
4 3 8 16 8 29 0 12 4 22 9 21 5 0 12 3 15 8 3 5 26 15 50 22 34 10 45 10 51 1
4 -7 13 -9 19 -6 6 4 27 2 46 -5 27 -10 35 -19 37 -43 2 -26 8 -32 32 -34 16
-2 33 2 38 10 17 26 36 -22 44 -110 7 -87 -9 -407 -25 -491 -7 -36 -6 -46 11
-63 18 -18 19 -30 14 -170 -4 -109 -9 -153 -18 -159 -7 -5 -41 -9 -75 -9 -58
0 -78 -10 -53 -25 16 -10 12 -42 -6 -49 -9 -3 -38 -6 -66 -6 -35 0 -48 -4 -45
-12 2 -7 13 -13 24 -13 12 0 24 -3 28 -7 4 -4 20 -5 35 -2 17 4 32 0 43 -10
18 -18 48 -20 97 -6 44 13 126 -5 140 -30 6 -10 24 -19 45 -22 32 -4 36 -1 41
21 3 15 10 37 16 51 9 23 11 24 23 7 13 -17 15 -17 44 14 23 24 32 28 36 17 3
-8 1 -27 -5 -42 -19 -50 -14 -63 24 -61 18 0 40 6 48 12 21 18 55 5 124 -44
67 -47 76 -50 93 -30 8 11 2 18 -29 33 -49 24 -50 32 -4 32 45 0 49 4 36 42
-10 26 -9 32 5 37 9 4 30 -1 46 -11 23 -13 33 -14 44 -5 18 15 34 1 49 -43 11
-33 34 -50 34 -25 0 8 7 21 16 28 11 9 14 23 11 47 -5 29 -4 32 14 27 12 -4
29 2 46 15 25 19 27 20 36 4 7 -12 6 -24 -2 -37 -11 -16 -9 -23 15 -48 24 -25
64 -40 64 -24 0 3 -18 39 -40 79 -42 76 -49 106 -27 106 20 0 46 -32 81 -101
17 -34 36 -61 41 -61 6 1 13 28 16 59 4 32 10 83 14 113 6 45 4 58 -9 69 -22
18 -21 51 2 51 11 0 30 -18 46 -42 25 -38 27 -48 24 -131 -3 -86 -2 -90 19
-93 31 -5 61 39 43 61 -11 13 -7 15 22 15 20 0 50 10 69 23 55 37 69 40 69 14
0 -15 -11 -27 -32 -37 -41 -19 -51 -44 -14 -34 20 5 31 1 46 -17 21 -26 26
-49 10 -49 -5 0 -10 9 -10 21 0 21 -21 22 -27 2 -7 -19 42 -67 60 -60 15 6 17
38 17 326 l0 319 -37 -4 c-21 -3 -58 -6 -83 -7 -40 -2 -45 -5 -50 -32 -4 -16
-12 -40 -19 -52 -10 -19 -9 -23 4 -23 20 0 19 -6 -3 -28 -21 -21 -102 -23
-158 -4 -21 6 -35 7 -42 0 -6 -6 -12 -6 -16 1 -11 17 2 31 28 31 28 0 46 18
46 46 0 12 11 31 25 41 16 11 27 31 30 51 4 29 2 31 -15 22 -34 -18 -60 -12
-60 14 0 19 8 27 35 36 19 6 35 16 35 21 0 17 -93 101 -122 111 -17 6 -28 17
-28 29 0 26 -22 24 -49 -5 -13 -14 -33 -26 -44 -28 -11 -2 -28 -14 -36 -28 -9
-14 -25 -40 -36 -58 -11 -17 -25 -32 -32 -32 -21 0 -26 21 -9 39 9 10 16 30
16 44 0 23 -4 27 -30 27 -19 0 -30 5 -30 14 0 17 75 46 122 46 27 0 40 6 52
25 20 31 50 32 70 4 19 -28 62 -19 78 16 7 16 20 25 33 25 12 0 34 10 49 21
21 17 32 19 49 12 17 -8 28 -5 49 10 37 28 35 34 -11 42 -48 8 -58 28 -29 55
29 27 71 25 103 -4 15 -14 39 -28 55 -31 48 -11 50 -48 3 -66 -21 -8 -23 -12
-13 -24 7 -8 23 -15 36 -15 20 0 24 -5 24 -31 l0 -30 -31 22 c-17 12 -33 27
-36 35 -5 14 -33 8 -33 -8 0 -5 7 -16 15 -24 13 -13 13 -19 1 -42 -10 -19 -11
-33 -5 -45 8 -13 6 -15 -5 -11 -17 7 -56 -12 -56 -27 0 -6 5 -7 10 -4 6 4 17
2 24 -4 8 -7 39 -11 70 -10 l56 2 0 165 c0 142 -2 163 -14 152 -17 -14 -58
-10 -63 6 -2 7 4 20 14 29 9 10 17 27 18 39 0 14 7 22 22 24 21 3 22 7 22 128
l-1 124 -47 0 c-26 0 -50 -2 -52 -4 -2 -3 -3 -25 -1 -50 4 -43 5 -45 43 -51
21 -4 39 -11 39 -16 0 -15 -97 -10 -135 8 -35 17 -39 24 -35 75 1 14 -3 29 -8
32 -12 7 -533 14 -1340 18 -545 3 -624 1 -632 -12 -7 -11 -10 -8 -10 15 -1 28
-2 29 -14 12 -14 -18 -16 -18 -41 -1 -18 12 -24 22 -19 33 4 9 10 40 12 69 5
64 -4 76 -114 152 -72 50 -108 61 -117 38 -4 -8 -6 -7 -6 3 -1 16 -27 34 -43
31 -5 -1 -8 2 -8 7 0 5 -17 15 -37 22 -21 7 -47 18 -58 25 -11 7 -42 15 -70
18 -77 9 -115 17 -115 27 0 4 -9 13 -21 19 -19 11 -20 10 -9 -9 10 -19 9 -20
-13 -12 -13 5 -34 7 -48 4 -14 -2 -51 2 -82 10 -49 13 -57 13 -57 1 0 -18 -24
-18 -60 1 -25 13 -29 13 -34 -1z m121 -36 c-3 -8 -6 -5 -6 6 -1 11 2 17 5 13
3 -3 4 -12 1 -19z m83 -1 c8 -3 22 -8 30 -11 8 -4 -1 -4 -20 -1 -19 3 -38 9
-43 14 -10 10 5 9 33 -2z m75 -17 c3 -5 2 -10 -4 -10 -5 0 -13 5 -16 10 -3 6
-2 10 4 10 5 0 13 -4 16 -10z m-610 -230 c-3 -5 -11 -10 -16 -10 -6 0 -7 5 -4
10 3 6 11 10 16 10 6 0 7 -4 4 -10z m49 -19 c3 -5 -8 -11 -24 -13 -29 -4 -37
1 -23 15 9 10 41 9 47 -2z m861 -50 c33 -12 65 -19 71 -17 7 3 20 -4 30 -15 9
-10 22 -19 28 -19 6 0 28 -14 48 -30 41 -34 60 -85 79 -213 6 -43 15 -77 20
-77 14 0 10 -36 -5 -49 -8 -7 -27 -9 -42 -6 -115 24 -248 9 -343 -38 -32 -17
-63 -24 -90 -23 -23 1 -45 -2 -47 -6 -3 -5 -12 -4 -19 2 -38 32 -131 42 -124
14 5 -15 -12 -54 -22 -54 -5 0 -9 -7 -9 -15 0 -8 -5 -15 -11 -15 -5 0 -7 5 -3
11 5 8 -1 10 -17 7 -21 -4 -27 2 -41 34 -15 35 -15 38 -1 36 9 -2 18 2 20 8 5
14 -75 7 -130 -11 -36 -12 -77 -10 -77 4 0 3 9 12 20 19 12 7 17 18 13 29 -4
10 -2 14 4 10 10 -6 10 -1 4 32 -1 2 -7 -2 -15 -8 -11 -10 -16 -8 -21 8 -3 12
-3 26 1 33 10 16 5 102 -7 106 -5 2 -9 11 -9 20 0 12 3 13 12 4 7 -7 17 -12
22 -12 6 0 4 5 -4 10 -12 8 -9 10 12 10 21 0 28 6 33 30 4 16 11 33 17 36 6 4
8 2 4 -4 -3 -6 -2 -13 4 -17 5 -3 10 1 10 9 0 9 13 22 29 30 16 9 31 22 34 31
4 8 12 15 19 15 7 0 19 9 26 21 7 12 16 19 19 16 3 -3 24 5 48 19 48 27 76 30
104 12 15 -9 27 -8 57 7 22 11 45 20 52 21 8 1 16 4 18 7 11 11 126 -3 179
-22z m-1068 -146 c39 0 69 -3 67 -7 -2 -3 5 -9 16 -13 21 -7 25 -22 12 -41 -5
-8 -77 -9 -252 -3 -231 7 -396 11 -1010 24 -257 6 -468 19 -505 33 -49 17 123
20 840 14 418 -4 792 -7 832 -7z m1447 0 c-4 -8 -10 -15 -14 -15 -4 0 -10 7
-14 15 -4 10 1 15 14 15 13 0 18 -5 14 -15z m-2157 -97 c4 -7 15 -35 23 -61 8
-27 17 -47 20 -46 11 5 50 -22 45 -31 -3 -5 2 -21 11 -35 11 -18 15 -38 11
-65 l-5 -40 63 0 c45 0 69 -5 85 -18 31 -25 18 -52 -26 -52 -26 0 -38 -6 -51
-27 -26 -40 -51 -63 -67 -63 -34 0 -24 -25 29 -76 83 -78 78 -81 -161 -79
-168 1 -197 3 -205 17 -6 11 0 25 24 50 18 19 43 40 55 47 30 16 28 26 -8 41
-16 7 -39 28 -51 46 -23 38 -47 54 -79 54 -31 0 -37 30 -11 52 17 13 40 18 86
18 l63 0 -11 29 c-9 23 -7 34 6 55 9 14 17 33 17 42 0 8 13 21 30 27 25 9 30
18 36 57 8 52 19 70 45 70 10 0 21 -6 26 -12z m-884 -12 c7 -17 -1 -26 -24
-26 -21 0 -33 15 -24 30 9 15 42 12 48 -4z m1707 -36 c0 -4 -10 -8 -22 -8 -13
0 -52 -2 -88 -6 -36 -3 -58 -4 -50 0 8 3 22 8 30 12 68 27 130 29 130 2z
m-1793 -57 l24 -32 -20 -20 c-12 -12 -21 -28 -21 -36 0 -8 -9 -15 -20 -15 -13
0 -20 -7 -20 -20 0 -21 -15 -27 -25 -10 -3 5 -12 7 -20 3 -8 -3 -15 0 -15 6 0
6 5 11 11 11 7 0 9 10 7 25 -3 14 -2 25 2 25 5 0 6 10 2 23 -5 19 -4 20 11 9
15 -13 17 -10 23 27 8 50 25 51 61 4z m5103 17 c0 -13 -7 -20 -20 -20 -19 0
-27 20 -13 33 13 14 33 6 33 -13z m-3575 -38 c55 -4 106 -11 113 -15 18 -12
17 -193 -2 -204 -14 -8 -274 3 -324 13 -22 4 -23 8 -21 94 2 56 -2 94 -9 103
-20 23 0 29 73 22 39 -3 115 -9 170 -13z m-334 -3 c-16 -6 -28 -6 -35 1 -7 7
1 10 25 9 32 0 33 -1 10 -10z m-1048 -14 c4 -8 2 -17 -3 -20 -13 -8 -40 6 -40
21 0 19 36 18 43 -1z m987 11 c0 -3 -4 -8 -10 -11 -5 -3 -10 -1 -10 4 0 6 5
11 10 11 6 0 10 -2 10 -4z m1817 -78 c15 -12 18 -32 3 -23 -5 3 -10 2 -10 -4
0 -13 -32 -2 -45 16 -6 7 -24 18 -40 23 -24 8 -19 9 25 4 30 -3 60 -10 67 -16z
m100 -15 c-3 -10 -5 -4 -5 12 0 17 2 24 5 18 2 -7 2 -21 0 -30z m-980 21 c-3
-3 -12 -4 -19 -1 -8 3 -5 6 6 6 11 1 17 -2 13 -5z m655 -36 c-8 -59 -42 -55
-42 5 0 22 5 27 23 27 21 0 23 -4 19 -32z m-512 -2 c0 -9 -8 -12 -27 -8 -25 5
-25 6 -8 13 29 11 35 10 35 -5z m180 4 c0 -5 -4 -10 -10 -10 -5 0 -10 5 -10
10 0 6 5 10 10 10 6 0 10 -4 10 -10z m370 -21 c0 -6 -4 -7 -10 -4 -5 3 -10 11
-10 16 0 6 5 7 10 4 6 -3 10 -11 10 -16z m-764 -55 c-21 -31 -40 -54 -43 -51
-2 3 12 31 32 62 20 32 39 55 42 51 3 -3 -11 -31 -31 -62z m807 59 c-7 -2 -19
-2 -25 0 -7 3 -2 5 12 5 14 0 19 -2 13 -5z m-2772 -46 c-13 -13 -26 -3 -16 12
3 6 11 8 17 5 6 -4 6 -10 -1 -17z m87 1 c14 -14 16 -44 3 -52 -5 -4 -16 -3
-25 0 -14 5 -17 32 -7 62 2 6 18 1 29 -10z m2726 3 c11 -18 -35 -46 -75 -45
-49 2 -50 -12 -1 -25 49 -14 72 -13 102 4 14 8 40 14 58 15 24 0 35 6 43 23 7
17 9 12 5 -26 -3 -36 -11 -56 -32 -78 -15 -16 -23 -29 -18 -29 28 0 111 131
97 153 -4 7 1 6 10 -2 9 -7 17 -23 18 -35 0 -21 0 -21 9 -1 12 31 37 47 60 40
11 -3 20 -11 20 -16 0 -15 -54 -59 -66 -54 -9 2 -11 -13 -7 -53 5 -59 -10
-118 -27 -107 -5 3 -10 -2 -10 -11 0 -10 -3 -14 -7 -11 -3 4 -12 -1 -19 -11
-9 -11 -13 -13 -14 -4 0 7 -5 10 -10 7 -6 -4 -8 -10 -5 -15 3 -5 -8 -23 -23
-40 -27 -29 -33 -31 -72 -25 -28 4 -40 3 -35 -4 3 -6 -1 -11 -9 -11 -11 0 -16
-9 -16 -30 0 -28 -17 -40 -34 -23 -14 15 -49 9 -54 -9 -5 -22 -14 -22 -67 -4
-27 10 -46 11 -58 4 -10 -5 -37 -6 -61 -3 -24 4 -59 2 -79 -3 -50 -14 -47 4 2
19 22 7 48 24 61 41 22 30 36 29 50 -6 8 -19 9 -18 9 10 1 28 4 31 27 26 26
-5 74 29 74 52 0 14 -89 36 -96 24 -9 -14 -42 -9 -80 11 -39 21 -66 18 -57 -5
3 -8 0 -14 -5 -14 -22 0 -24 41 -4 63 11 12 22 34 26 50 3 15 10 27 15 27 4 0
8 16 9 36 2 40 25 84 45 84 23 0 34 -15 81 -107 29 -57 55 -95 68 -98 25 -8
34 0 20 18 -10 11 -2 13 46 11 l57 -3 -50 7 c-72 10 -120 50 -131 107 -3 19
-1 23 11 18 11 -4 18 1 22 16 4 16 10 20 22 15 33 -14 105 -4 120 16 14 21 27
25 35 11z m-109 -11 c3 -5 -3 -10 -15 -10 -12 0 -18 5 -15 10 3 6 10 10 15 10
5 0 12 -4 15 -10z m-365 -18 c0 -14 -35 -42 -53 -42 -20 0 -20 0 1 20 12 12
22 25 22 30 0 5 7 7 15 4 8 -4 15 -9 15 -12z m287 3 c0 -8 -4 -15 -9 -15 -10
0 -11 14 -1 23 9 10 10 9 10 -8z m-2368 -2 c-4 -22 3 -33 19 -33 13 0 23 -13
32 -40 7 -22 19 -45 27 -51 20 -17 16 -57 -7 -69 -11 -6 -20 -17 -20 -24 0
-16 27 -29 41 -20 6 3 18 3 27 -1 16 -6 15 -8 -3 -21 -16 -12 -17 -18 -8 -32
8 -14 7 -23 -3 -37 -8 -10 -12 -26 -9 -36 7 -21 -16 -40 -58 -48 -25 -5 -33
-13 -37 -36 -6 -33 -22 -42 -40 -20 -7 8 -18 15 -26 15 -7 0 -16 5 -19 10 -10
17 15 40 42 40 20 0 22 3 14 19 -8 14 -7 22 4 31 20 17 19 30 -2 30 -32 0 -60
99 -33 115 6 3 10 25 10 48 0 23 7 56 16 72 9 17 16 45 16 63 0 17 4 32 9 32
5 0 8 -3 8 -7z m-239 -38 c0 -13 -30 -25 -63 -25 -14 0 -17 5 -11 23 4 12 11
25 17 29 14 8 57 -12 57 -27z m2210 14 c0 -6 -4 -7 -10 -4 -5 3 -10 11 -10 16
0 6 5 7 10 4 6 -3 10 -11 10 -16z m140 -20 c0 -11 5 -29 11 -40 10 -20 11 -20
25 -2 10 13 9 6 -3 -25 -12 -31 -27 -49 -52 -62 -31 -17 -33 -19 -13 -20 13 0
20 -4 17 -10 -3 -5 -1 -10 4 -10 6 0 11 -7 11 -15 0 -8 10 -35 21 -60 17 -37
19 -48 9 -60 -7 -9 -21 -14 -30 -13 -9 2 -25 -3 -34 -11 -20 -17 -73 -3 -69
17 2 7 -2 12 -7 12 -5 0 -10 -4 -10 -10 0 -20 -57 -10 -73 13 -9 12 -27 35
-41 51 -14 16 -26 33 -26 38 0 5 -15 15 -34 23 -39 16 -46 30 -46 91 0 37 3
42 17 37 10 -4 28 -20 41 -35 31 -36 73 -58 109 -57 24 1 22 2 -12 10 -21 5
-49 19 -62 31 -22 21 -50 85 -40 94 3 3 9 -9 15 -25 6 -17 13 -31 16 -31 3 0
3 7 0 15 -4 8 -1 15 5 15 6 0 8 7 5 15 -8 19 15 19 40 0 29 -22 99 -19 140 6
20 12 36 25 36 30 0 5 7 9 15 9 8 0 15 -9 15 -21z m-467 -44 c51 -45 27 -55
-45 -19 -15 8 -35 11 -45 7 -17 -6 -17 -5 1 15 25 28 54 27 89 -3z m-1790 0
c-3 -9 2 -24 11 -34 15 -16 15 -22 4 -40 -16 -27 -46 -27 -73 -1 -18 17 -27
19 -48 11 -19 -8 -27 -7 -31 5 -4 10 2 14 19 14 13 0 46 14 72 30 55 35 54 35
46 15z m2997 -16 c0 -11 -4 -17 -10 -14 -5 3 -7 0 -4 -9 3 -8 -6 -51 -21 -97
-16 -50 -23 -93 -20 -110 4 -17 1 -32 -10 -43 -18 -17 -30 -22 -21 -7 4 5 1
11 -6 13 -9 3 -8 18 4 59 17 54 33 147 29 163 -5 20 12 46 30 46 10 0 19 5 19
10 0 6 2 10 5 10 3 0 5 -9 5 -21z m-1098 -46 c8 -9 6 -13 -5 -13 -15 0 -29 44
-18 56 3 3 8 -2 10 -13 2 -10 8 -24 13 -30z m-1612 23 c0 -3 -4 -8 -10 -11 -5
-3 -10 -1 -10 4 0 6 5 11 10 11 6 0 10 -2 10 -4z m-440 -25 c0 -5 -7 -14 -15
-21 -13 -10 -15 -9 -15 9 0 12 6 21 15 21 8 0 15 -4 15 -9z m1847 -23 c-3 -7
-5 -2 -5 12 0 14 2 19 5 13 2 -7 2 -19 0 -25z m104 -29 c-15 -60 -12 -85 13
-108 l26 -25 -6 32 c-4 21 -3 32 5 32 6 0 11 -8 12 -17 0 -10 2 -30 4 -44 3
-26 3 -26 -26 -12 -16 8 -34 24 -40 35 -14 26 -21 98 -9 98 5 0 7 7 3 16 -4
12 -2 15 8 12 8 -3 12 -12 10 -19z m-1731 -13 c0 -3 -4 -8 -10 -11 -5 -3 -10
-1 -10 4 0 6 5 11 10 11 6 0 10 -2 10 -4z m1660 -18 c0 29 19 9 25 -28 4 -22
18 -56 31 -76 44 -65 20 -45 -34 28 -28 40 -52 78 -52 87 0 11 3 10 15 -5 8
-11 15 -14 15 -6z m3044 3 c3 -5 -10 -21 -29 -35 -26 -20 -48 -27 -87 -29 -51
-2 -53 -3 -51 -29 1 -19 -4 -29 -18 -33 -10 -4 -19 -11 -19 -16 0 -5 -13 -9
-30 -9 -45 0 -40 33 10 65 33 21 39 30 34 49 -7 29 16 40 50 24 19 -8 33 -7
63 5 44 18 69 21 77 8z m-4982 -83 c-15 -15 -26 -4 -18 18 5 13 9 15 18 6 9
-9 9 -15 0 -24z m625 -21 c-5 -16 -37 -21 -50 -8 -18 18 11 43 35 30 10 -6 17
-16 15 -22z m410 18 c37 -26 48 -135 42 -388 -1 -27 6 -46 21 -62 12 -13 19
-28 15 -34 -3 -6 -40 -11 -86 -11 -109 0 -141 19 -104 60 16 18 23 79 11 98
-4 7 -27 12 -52 12 -38 0 -45 3 -42 18 4 22 46 29 54 8 3 -9 9 -16 13 -16 12
0 31 88 31 142 0 28 9 82 20 119 22 74 35 83 77 54z m3974 -35 c18 -10 17 -13
-15 -46 -48 -50 -78 -26 -40 31 18 28 26 30 55 15z m-4821 -30 c0 -27 -44 -48
-65 -30 -13 11 -12 14 8 31 30 25 57 24 57 -1z m425 -10 c3 -6 -4 -10 -17 -10
-18 0 -20 2 -8 10 19 12 18 12 25 0z m1467 -22 c17 -20 17 -23 2 -31 -23 -13
-64 8 -64 33 0 27 37 26 62 -2z m-1642 -60 c1 -24 3 -65 5 -92 4 -37 1 -52
-12 -61 -10 -8 -13 -17 -8 -25 15 -23 16 -123 2 -117 -47 18 -56 17 -62 -2
-12 -37 -32 -45 -78 -30 -58 19 -85 44 -71 67 6 9 25 18 43 20 25 3 31 8 31
28 0 17 -8 27 -25 34 -43 16 -31 47 22 54 10 2 19 10 21 19 4 19 -36 33 -51
18 -17 -17 -37 -13 -37 8 0 30 24 42 81 39 51 -3 53 -2 83 39 40 55 56 55 56
1z m2325 17 c22 -8 53 -16 69 -19 38 -7 40 -10 21 -39 -15 -23 -65 -44 -65
-27 0 16 -38 22 -132 20 -55 0 -98 3 -98 8 0 5 -14 12 -32 16 -30 6 -30 7 -13
25 9 11 31 21 49 23 93 9 165 7 201 -7z m2031 -6 c11 -18 -13 -34 -31 -19 -8
7 -15 16 -15 21 0 13 38 11 46 -2z m124 -7 c0 -16 -58 -64 -69 -58 -16 10 -14
27 6 48 16 18 63 25 63 10z m-4932 -59 c4 -26 -1 -28 -29 -13 -27 15 -25 42 4
38 14 -2 23 -11 25 -25z m176 2 c-4 -8 -9 -15 -13 -16 -3 0 -14 -2 -23 -4 -25
-5 -32 12 -11 24 27 16 53 14 47 -4z m396 -54 c0 -10 -9 -21 -20 -24 -11 -3
-20 -1 -20 3 0 5 -3 15 -6 24 -5 12 0 16 20 16 19 0 26 -5 26 -19z m4310 -1
c9 -18 8 -20 -15 -20 -24 0 -34 18 -18 33 11 12 22 8 33 -13z m-2150 -19 c0
-4 23 -12 50 -17 58 -10 63 -21 27 -48 -35 -26 -227 -34 -227 -10 0 10 -6 13
-19 9 -15 -4 -18 -1 -14 19 5 24 32 33 143 50 14 2 28 4 33 5 4 0 7 -3 7 -8z
m-2056 -20 c7 -10 -22 -37 -30 -28 -9 8 3 37 15 37 5 0 12 -4 15 -9z m4590
-37 c25 -9 19 -22 -9 -20 -14 0 -25 7 -25 14 0 13 10 15 34 6z m-5114 -39 c0
-8 -2 -15 -4 -15 -2 0 -6 7 -10 15 -3 8 -1 15 4 15 6 0 10 -7 10 -15z m439
-19 c13 -9 15 -36 2 -36 -5 0 -19 9 -32 19 -22 18 -26 18 -51 3 -32 -19 -43
-12 -34 22 6 24 7 24 55 11 27 -7 54 -16 60 -19z m4334 10 c6 -15 -21 -43 -40
-42 -14 1 -16 11 -7 39 6 20 40 23 47 3z m-4880 -31 c1 -5 -6 -11 -15 -13 -11
-2 -18 3 -18 13 0 17 30 18 33 0z m3017 -22 c23 -84 32 -185 21 -267 -5 -45
-13 -124 -17 -176 -4 -52 -12 -114 -19 -137 -7 -24 -9 -40 -4 -37 11 7 11 -91
-1 -225 -5 -58 -14 -191 -20 -295 -6 -105 -16 -229 -22 -276 -6 -47 -12 -159
-13 -251 -2 -124 -7 -175 -19 -203 -9 -21 -16 -49 -16 -62 0 -13 -7 -57 -17
-99 -17 -77 -35 -100 -32 -42 0 17 -4 93 -10 167 -6 74 -13 180 -16 235 -5 90
-8 102 -32 127 -15 16 -30 27 -34 26 -4 -2 -40 -43 -78 -93 l-71 -90 66 -63
c66 -63 107 -88 125 -76 5 3 9 10 9 16 0 7 -6 6 -15 -2 -21 -18 -19 -3 5 27
l20 26 0 -26 c0 -14 -5 -37 -11 -51 -9 -20 -8 -32 5 -60 18 -39 20 -62 6 -71
-6 -4 -7 -11 -4 -17 4 -6 8 -24 8 -40 1 -23 -3 -28 -17 -24 -33 8 -33 -25 1
-55 27 -24 31 -33 26 -59 -7 -34 -24 -51 -24 -24 0 14 -2 15 -17 3 -17 -13
-17 -12 -4 4 13 17 9 24 -53 80 -38 34 -105 99 -149 145 -44 45 -84 82 -88 82
-12 0 -11 -254 1 -304 5 -22 22 -53 38 -69 l30 -30 12 23 c27 50 112 138 118
121 2 -6 8 -8 14 -5 5 3 4 -3 -4 -15 -7 -12 -14 -17 -16 -11 -7 19 -21 10 -17
-11 3 -13 -11 -41 -37 -76 l-42 -55 23 -19 c13 -11 27 -19 31 -19 4 0 20 18
35 40 32 46 44 50 41 17 -1 -18 -6 -23 -21 -20 -19 4 -19 4 -1 -7 10 -7 14
-15 10 -19 -5 -3 -14 -16 -21 -28 -11 -19 -8 -25 24 -57 47 -45 36 -58 -14
-17 -50 42 -56 20 -7 -30 49 -51 39 -59 -15 -12 -34 29 -45 34 -51 22 -5 -8
-22 -31 -38 -52 -17 -21 -33 -43 -36 -50 -3 -9 -8 -8 -15 3 -18 25 -13 45 24
93 37 48 38 64 5 85 -17 10 -22 9 -32 -8 -19 -29 -24 -25 -21 20 1 22 -3 42
-9 46 -7 5 -9 -17 -7 -69 3 -41 1 -73 -3 -71 -5 3 -8 10 -8 15 0 5 -16 45 -36
87 -49 104 -102 233 -130 316 -22 64 -23 79 -18 209 5 105 4 138 -5 133 -6 -4
-9 -11 -6 -16 4 -7 -24 -24 -30 -18 -9 9 -35 183 -35 229 0 30 -5 72 -10 94
-10 48 -27 310 -34 535 -4 151 -4 161 9 115 15 -56 19 -26 6 43 -8 39 0 65 13
43 3 -5 25 -6 49 -4 32 4 52 0 71 -12 16 -11 35 -15 51 -11 34 9 46 -15 80
-156 27 -110 28 -122 16 -184 -12 -67 -12 -67 15 -92 25 -24 28 -24 40 -8 7
10 10 25 7 34 -3 12 -2 13 4 5 6 -9 12 -7 22 9 11 18 11 20 -4 15 -13 -6 -13
-2 4 22 11 15 34 43 51 61 35 38 37 51 10 68 -27 16 -25 34 3 30 15 -2 21 -9
19 -20 -2 -10 3 -18 10 -18 7 0 27 -17 45 -37 22 -27 35 -35 42 -28 7 8 3 19
-15 38 -13 15 -29 27 -34 27 -6 0 -10 11 -10 25 0 14 6 25 13 25 8 0 18 21 24
53 6 28 16 68 22 87 9 32 9 33 -4 16 -8 -11 -15 -24 -15 -28 0 -16 -82 -128
-94 -128 -7 0 -17 5 -23 11 -8 8 -15 6 -25 -10 -17 -27 -31 -27 -23 0 13 40
12 54 -4 62 -9 4 -4 5 12 2 21 -4 33 0 47 17 25 30 25 35 -2 44 -22 7 -22 7
-3 15 15 6 16 8 4 8 -9 1 -22 8 -29 16 -16 19 -11 19 34 0 20 -9 41 -13 46
-10 5 3 30 32 54 64 34 44 42 61 33 70 -8 8 -7 11 6 11 27 0 20 -26 -21 -88
-55 -82 -55 -82 -37 -82 8 0 20 10 25 23 35 83 90 137 90 89 0 -15 11 -22 44
-31 57 -14 68 -14 90 2 16 12 6 21 -98 91 -64 42 -135 86 -158 96 l-41 18 -66
-36 c-36 -19 -74 -42 -83 -50 -10 -8 -18 -10 -18 -5 0 6 15 20 33 32 30 19 30
21 8 21 -16 0 -21 4 -17 15 10 27 -87 -30 -190 -111 l-98 -76 -12 25 c-40 75
-59 199 -38 251 4 10 2 21 -4 25 -16 9 -26 154 -17 245 7 82 19 98 28 40 11
-64 47 -123 125 -200 104 -103 213 -174 267 -174 35 0 50 8 120 69 82 71 181
177 224 240 33 48 61 124 61 166 0 46 16 45 30 -2z m-2253 -3 c-4 -16 -2 -32
3 -35 17 -10 11 -37 -9 -42 -16 -4 -36 -41 -27 -50 2 -2 20 4 42 13 28 12 51
14 89 9 27 -4 84 -9 125 -10 41 -1 85 -5 98 -9 13 -4 28 -4 35 1 7 5 46 7 87
6 241 -8 293 -12 303 -22 19 -19 65 -13 78 10 9 18 18 21 56 16 24 -2 61 0 81
5 20 5 88 9 150 8 122 -1 150 7 132 41 -8 14 -6 21 11 29 32 18 71 4 67 -23
-2 -14 4 -26 17 -32 34 -18 31 -52 -7 -75 -26 -16 -43 -19 -82 -14 -44 6 -48
5 -44 -12 2 -10 10 -18 18 -16 8 2 28 5 44 8 30 4 31 4 6 -7 -14 -7 -77 -37
-140 -67 -63 -30 -158 -72 -210 -94 -52 -21 -104 -43 -115 -48 -11 -5 -45 -16
-75 -26 -30 -9 -64 -23 -75 -30 -11 -7 -38 -15 -60 -19 -74 -12 -121 -34 -133
-63 -9 -21 -11 -22 -8 -4 3 14 -1 22 -10 22 -16 0 -73 -118 -81 -169 -9 -57
-18 -68 -52 -63 -19 2 -31 0 -31 -7 0 -6 3 -10 8 -10 30 5 43 -3 40 -23 -3
-20 -8 -23 -43 -20 -21 2 -46 7 -54 12 -10 5 -26 3 -43 -6 -25 -13 -32 -12
-72 6 -45 20 -96 27 -96 12 0 -5 7 -17 15 -28 8 -10 15 -22 15 -26 0 -12 -48
-10 -55 2 -3 6 -15 5 -30 -2 -14 -6 -28 -8 -33 -4 -6 7 3 16 53 51 20 13 20
14 -7 40 -16 14 -28 31 -28 38 0 18 18 42 26 35 3 -4 20 0 37 9 24 12 66 16
189 17 143 1 158 3 158 19 0 10 -8 17 -20 17 -11 0 -20 5 -20 10 0 10 13 14
43 10 12 -1 21 7 25 22 3 13 5 24 4 25 -1 1 -95 4 -208 6 -195 5 -206 6 -220
26 -17 24 -34 28 -34 7 0 -20 -16 -29 -40 -21 -30 9 -26 45 4 45 16 0 27 7 31
19 3 11 21 29 40 40 19 11 35 27 35 36 0 19 -24 19 -40 0 -21 -26 -30 -16 -24
25 6 36 4 40 -20 50 -34 13 -43 36 -22 59 9 10 16 23 16 30 0 7 7 19 15 27 8
9 15 11 15 5 0 -14 27 -14 35 -1 3 6 -6 17 -22 26 -68 40 -82 108 -21 102 27
-3 32 1 39 26 4 16 5 42 2 57 -4 23 -2 29 12 29 14 0 16 -6 12 -30z m-60 1
c10 -16 9 -20 -3 -25 -21 -8 -34 1 -34 25 0 24 22 25 37 0z m4411 -3 c-5 -34
-38 -37 -38 -4 0 20 5 26 21 26 15 0 20 -5 17 -22z m129 6 c-3 -3 -12 -4 -19
-1 -8 3 -5 6 6 6 11 1 17 -2 13 -5z m-4397 -23 c0 -12 -20 -25 -27 -18 -7 7 6
27 18 27 5 0 9 -4 9 -9z m470 -18 c-24 -17 -35 -12 -27 11 4 9 14 12 27 9 l21
-6 -21 -14z m258 21 c23 -7 23 -7 3 -25 -17 -16 -61 -27 -61 -15 0 2 -3 11 -6
19 -5 13 3 19 36 26 3 0 15 -2 28 -5z m-1110 -26 c-4 -30 -43 -37 -51 -9 -5
21 5 29 36 30 14 1 18 -5 15 -21z m1479 15 c24 -3 40 -10 37 -15 -4 -6 -65 -7
-158 -4 -83 3 -166 5 -184 5 -19 1 -31 5 -27 11 6 10 260 13 332 3z m-483 -9
c17 -7 10 -34 -9 -34 -17 0 -28 17 -20 30 7 12 8 12 29 4z m3746 -4 c0 -5 -4
-10 -10 -10 -5 0 -10 5 -10 10 0 6 5 10 10 10 6 0 10 -4 10 -10z m-924 -86
c-7 -27 -26 -24 -26 5 0 21 23 47 28 31 2 -6 1 -22 -2 -36z m-4096 1 c0 -21
-19 -28 -36 -14 -14 12 -14 14 2 26 19 14 34 9 34 -12z m158 3 c-2 -13 -10
-23 -18 -23 -8 0 -16 10 -18 23 -3 17 2 22 18 22 16 0 21 -5 18 -22z m242 12
c0 -5 -2 -10 -4 -10 -3 0 -8 5 -11 10 -3 6 -1 10 4 10 6 0 11 -4 11 -10z m25
-20 c3 -5 1 -10 -4 -10 -6 0 -11 5 -11 10 0 6 2 10 4 10 3 0 8 -4 11 -10z
m-60 -40 c11 -18 -6 -50 -26 -50 -22 0 -34 22 -25 45 6 17 42 20 51 5z m-481
-19 c10 -15 -32 -88 -54 -94 -14 -4 -20 0 -20 12 0 9 -6 23 -12 30 -11 10 -7
17 17 37 31 24 60 31 69 15z m358 -40 c15 -6 30 -6 33 -2 8 13 45 1 45 -15 0
-18 -21 -29 -30 -15 -5 9 -11 8 -24 -4 -9 -10 -30 -18 -47 -19 -27 -1 -33 4
-46 37 -8 20 -12 44 -9 53 6 15 9 15 29 -4 12 -11 34 -25 49 -31z m-303 7 c11
-18 11 -22 -3 -30 -9 -5 -16 -18 -16 -28 0 -25 -17 -26 -22 -2 -4 19 12 82 21
82 4 0 12 -10 20 -22z m147 -9 c10 -17 -13 -36 -27 -22 -12 12 -4 33 11 33 5
0 12 -5 16 -11z m-69 -45 c3 -9 1 -26 -5 -40 -10 -21 -8 -25 17 -39 16 -8 31
-20 33 -26 2 -7 15 -4 37 9 56 34 78 7 46 -54 l-15 -29 42 -12 c23 -7 46 -9
50 -5 4 4 -3 32 -18 61 -28 59 -26 86 6 76 12 -4 27 -1 35 5 16 13 35 5 35
-14 0 -8 -6 -19 -14 -25 -15 -13 -10 -61 7 -58 23 4 3 -79 -22 -92 -9 -5 -36
-6 -61 -1 -24 4 -54 4 -66 0 -12 -5 -25 -6 -30 -2 -4 4 -4 2 0 -5 9 -17 -20
-20 -81 -8 -30 5 -53 15 -53 22 0 6 -7 16 -17 21 -14 9 -14 11 6 21 11 7 29
11 39 9 13 -2 18 5 20 30 3 33 3 33 -35 30 -37 -3 -38 -2 -41 33 -2 26 3 42
22 62 16 18 23 33 19 48 -5 19 -4 20 16 9 12 -6 25 -18 28 -26z m136 -10 c10
-10 -12 -44 -27 -44 -13 0 -26 20 -26 41 0 10 43 12 53 3z m-393 -29 c12 -2
31 0 41 5 14 8 21 6 30 -12 10 -19 8 -25 -20 -47 -23 -19 -29 -32 -25 -47 4
-14 0 -23 -11 -28 -26 -10 -44 22 -45 76 0 26 -5 50 -10 53 -6 4 -7 11 -4 17
4 7 9 6 13 -1 4 -6 18 -13 31 -16z m670 -10 c0 -8 -9 -19 -20 -25 -17 -9 -19
-8 -13 7 6 15 21 32 31 33 1 0 2 -7 2 -15z m5 -64 c0 -8 -6 -16 -14 -19 -8 -3
-11 0 -7 7 4 6 2 11 -3 11 -6 0 -11 -4 -11 -10 0 -17 -26 -11 -46 11 -18 20
-18 20 31 17 35 -2 50 -7 50 -17z m-531 -47 c9 -3 16 -15 16 -26 0 -28 -34
-19 -38 10 -4 24 -2 25 22 16z m-65 -35 c16 -45 14 -49 -18 -49 -36 0 -43 9
-35 49 9 42 38 42 53 0z m-96 -3 c6 -16 -2 -28 -14 -20 -12 7 -11 34 0 34 5 0
11 -6 14 -14z m2727 -75 c0 -5 -19 -16 -41 -25 -38 -15 -40 -18 -24 -30 17
-12 17 -13 0 -20 -10 -3 -23 -2 -30 4 -8 7 -18 2 -33 -15 -24 -28 -44 -32 -61
-11 -14 17 9 39 32 30 8 -3 18 -1 22 5 3 7 0 8 -9 5 -10 -4 -16 -1 -16 9 0 8
9 17 20 20 11 3 20 1 20 -4 0 -5 7 -9 15 -9 8 0 14 3 14 8 -3 20 2 32 16 32 8
0 15 -5 15 -11 0 -5 10 -3 22 5 25 18 38 20 38 7z m-210 -28 c0 -20 -3 -24
-11 -16 -7 7 -9 19 -6 27 10 24 17 19 17 -11z m101 -130 c-11 -5 -11 -7 0 -14
11 -7 10 -9 -3 -9 -18 0 -23 11 -11 23 3 4 11 7 17 6 6 0 5 -3 -3 -6z m44 -33
c3 -6 -1 -7 -9 -4 -18 7 -21 14 -7 14 6 0 13 -4 16 -10z m745 -86 c0 -8 -5
-12 -10 -9 -6 4 -8 11 -5 16 9 14 15 11 15 -7z m1764 -4 c43 -16 32 -33 -16
-25 -53 9 -64 15 -47 26 18 11 32 11 63 -1z m-4794 -50 c0 -5 -6 -10 -14 -10
-8 0 -18 5 -21 10 -3 6 3 10 14 10 12 0 21 -4 21 -10z m798 -2 c-4 -17 -19
-28 -40 -28 -20 0 -24 26 -5 33 23 10 47 7 45 -5z m1502 -31 c0 -2 -15 -16
-32 -33 -18 -16 -28 -23 -21 -15 6 7 9 20 6 29 -4 9 -2 13 3 9 6 -3 16 -2 24
4 16 9 20 11 20 6z m-1566 -38 c3 -3 3 -22 -1 -42 -4 -27 -11 -37 -24 -37 -11
0 -19 7 -19 15 0 8 -4 15 -10 15 -5 0 -7 -8 -4 -17 5 -16 4 -16 -8 -2 -11 13
-39 16 -158 18 -525 5 -590 10 -590 41 0 5 8 11 18 13 23 7 789 3 796 -4z
m4284 -13 c6 -27 -10 -37 -32 -21 -16 12 -17 17 -6 30 16 19 34 15 38 -9z
m-5168 4 c0 -5 -5 -10 -11 -10 -5 0 -7 5 -4 10 3 6 8 10 11 10 2 0 4 -4 4 -10z
m850 -109 c0 -9 -4 -21 -9 -26 -18 -18 -102 -188 -96 -194 3 -3 22 -4 41 -2
18 1 34 0 34 -2 0 -3 -24 -16 -52 -30 -29 -13 -65 -36 -80 -50 -16 -14 -28
-23 -28 -18 0 4 11 18 24 30 14 13 22 29 20 36 -3 7 6 29 20 50 14 21 26 47
26 58 0 11 9 35 21 53 13 22 18 42 14 56 -4 15 -3 18 2 10 7 -9 14 -2 26 23
17 36 37 39 37 6z m-483 -17 c3 -8 9 -12 13 -9 9 5 25 -13 18 -20 -2 -2 -30 3
-63 11 -75 17 -78 17 -71 -1 3 -9 0 -15 -10 -15 -15 0 -16 30 -1 41 17 13 108
7 114 -7z m400 -6 c-3 -8 -6 -5 -6 6 -1 11 2 17 5 13 3 -3 4 -12 1 -19z m2413
8 c0 -3 -4 -8 -10 -11 -5 -3 -10 -1 -10 4 0 6 5 11 10 11 6 0 10 -2 10 -4z
m1700 -56 c0 -5 -7 -7 -15 -4 -8 4 -12 10 -9 15 6 11 24 2 24 -11z m-4355 -20
c3 -5 2 -10 -4 -10 -5 0 -13 5 -16 10 -3 6 -2 10 4 10 5 0 13 -4 16 -10z
m4199 -5 c-4 -8 -8 -15 -11 -15 -2 0 -11 7 -19 15 -14 13 -13 15 10 15 18 0
24 -4 20 -15z m-4030 -9 c-3 -9 -12 -12 -22 -9 -15 6 -9 11 25 22 1 1 0 -5 -3
-13z m50 -1 c-4 -8 -12 -15 -20 -15 -17 0 -18 17 -1 23 22 9 27 7 21 -8z
m2422 -62 c-10 -10 -19 5 -10 18 6 11 8 11 12 0 2 -7 1 -15 -2 -18z m-2443
-12 c-5 -3 -12 -14 -16 -23 -4 -12 -12 -15 -24 -11 -17 7 -17 8 0 11 10 2 16
10 13 17 -6 17 2 25 21 18 8 -3 11 -9 6 -12z m2603 -11 c-1 -17 -16 -31 -16
-15 0 3 0 14 0 26 0 11 4 18 9 15 4 -3 8 -15 7 -26z m46 5 c0 -5 -5 -11 -11
-13 -6 -2 -11 4 -11 13 0 9 5 15 11 13 6 -2 11 -8 11 -13z m-95 -52 c-3 -10
-5 -2 -5 17 0 19 2 27 5 18 2 -10 2 -26 0 -35z m-117 -13 c0 -5 -4 -10 -10
-10 -5 0 -10 5 -10 10 0 6 5 10 10 10 6 0 10 -4 10 -10z m99 -104 c1 -37 -10
-26 -25 23 -7 25 -8 45 -1 62 10 23 10 22 18 -16 4 -22 8 -53 8 -69z m141 80
c0 -3 -4 -8 -10 -11 -5 -3 -10 -1 -10 4 0 6 5 11 10 11 6 0 10 -2 10 -4z m16
-52 c-5 -14 -9 -15 -19 -5 -9 9 -9 14 3 21 18 11 24 6 16 -16z m14 -39 c-7 -9
-15 -13 -17 -11 -7 7 7 26 19 26 6 0 6 -6 -2 -15z m-260 -51 c0 -8 -5 -12 -10
-9 -6 4 -8 11 -5 16 9 14 15 11 15 -7z m621 -364 c11 -25 31 -58 44 -75 12
-16 35 -55 50 -85 15 -30 38 -69 51 -87 27 -35 59 -118 69 -178 10 -62 40
-121 73 -145 l31 -23 -24 -19 c-13 -10 -30 -29 -37 -42 -7 -13 -23 -41 -35
-62 -17 -31 -32 -43 -72 -57 -35 -12 -60 -30 -83 -59 -18 -22 -48 -56 -65 -75
-18 -18 -33 -38 -33 -43 0 -6 -21 -21 -47 -34 -27 -13 -61 -30 -77 -39 -22
-12 -31 -13 -41 -4 -7 7 -9 14 -4 15 13 5 11 35 -5 73 -30 72 -48 207 -37 278
5 36 13 109 17 161 6 79 17 123 65 260 32 91 67 189 78 218 12 29 21 67 21 85
l0 32 20 -25 c11 -14 29 -45 41 -70z m-2473 -136 c24 -126 84 -313 136 -428
34 -74 36 -84 36 -184 l0 -105 -42 7 c-23 4 -69 19 -103 33 -33 14 -87 34
-120 45 -33 11 -67 24 -75 29 -8 5 -42 23 -75 38 -33 16 -73 43 -88 59 -33 34
-31 48 14 121 30 51 63 129 74 178 3 18 35 81 71 140 35 58 64 111 64 116 0 5
12 29 28 52 25 40 28 42 43 27 9 -10 25 -66 37 -128z m1151 -60 c-12 -15 -11
-16 10 -9 l24 7 -21 -28 c-11 -16 -40 -51 -65 -79 l-44 -49 2 31 c1 18 6 38
12 45 47 63 87 108 91 103 3 -2 -1 -12 -9 -21z m271 -444 c0 -5 -4 -10 -10
-10 -5 0 -10 5 -10 10 0 6 5 10 10 10 6 0 10 -4 10 -10z m-50 -84 c0 -3 -4 -8
-10 -11 -5 -3 -10 -1 -10 4 0 6 5 11 10 11 6 0 10 -2 10 -4z m-98 -148 c-7 -7
-12 -8 -12 -2 0 14 12 26 19 19 2 -3 -1 -11 -7 -17z m-12 -27 c0 -6 -4 -13
-10 -16 -5 -3 -10 1 -10 9 0 9 5 16 10 16 6 0 10 -4 10 -9z m-210 -11 c0 -5
-4 -10 -10 -10 -5 0 -10 5 -10 10 0 6 5 10 10 10 6 0 10 -4 10 -10z m113 -12
c4 -10 8 -9 17 2 9 12 10 9 5 -15 -10 -46 -20 -49 -32 -10 -10 32 -1 51 10 23z
m-72 -48 c18 0 119 -91 134 -120 8 -15 11 -36 8 -48 -4 -18 -9 -19 -31 -11
-37 14 -64 40 -58 56 11 26 -5 38 -55 41 -28 2 -56 -1 -62 -6 -17 -12 -74 -14
-82 -3 -5 9 -70 6 -108 -5 -40 -12 -6 -30 79 -40 119 -15 127 -18 200 -76 69
-53 86 -84 60 -103 -9 -7 -16 -17 -16 -23 0 -5 -6 -9 -12 -8 -19 3 -69 38 -64
44 3 2 -1 14 -9 25 -12 18 -12 22 2 32 10 8 13 19 9 33 -9 27 -22 28 -28 4 -4
-15 -13 -18 -39 -15 l-34 3 29 -14 c16 -7 25 -16 20 -19 -13 -7 -87 10 -149
35 -61 24 -106 34 -207 43 l-76 7 3 41 c1 23 -2 53 -7 66 -6 17 -5 27 4 33 21
13 48 10 42 -6 -3 -7 3 -16 12 -20 21 -8 22 -7 26 24 7 54 7 53 199 46 145 -6
179 -5 179 6 0 8 4 6 11 -4 5 -10 15 -18 20 -18z m-597 -55 c26 -9 45 -11 57
-4 25 13 24 14 27 -35 3 -49 -9 -62 -74 -76 -26 -6 -34 -3 -49 16 -15 20 -20
22 -33 12 -13 -11 -15 -10 -8 6 7 19 6 19 -13 2 -27 -24 -77 -128 -90 -186
-20 -87 -7 -205 24 -216 21 -8 7 -33 -16 -27 -10 3 -19 9 -19 14 0 15 -75 79
-93 79 -16 0 -17 6 -12 48 18 140 66 265 123 325 57 59 99 70 176 42z m787
-149 c23 -12 99 -26 169 -31 134 -11 206 -22 330 -53 142 -35 230 -44 280 -28
23 7 24 6 7 -7 -16 -14 -16 -15 8 -31 14 -9 25 -22 25 -29 0 -6 6 -24 14 -38
20 -40 39 -126 32 -153 -4 -18 -22 -30 -73 -51 -66 -26 -103 -50 -150 -94 -12
-12 -32 -21 -43 -21 -28 0 -56 28 -43 41 7 7 15 5 26 -5 21 -21 38 -12 59 29
21 41 11 45 -26 10 -17 -15 -26 -19 -26 -10 0 7 6 16 13 19 9 3 7 8 -5 16 -10
6 -15 18 -12 28 5 14 2 13 -11 -3 -9 -11 -21 -27 -26 -35 -8 -12 -11 -12 -16
-2 -4 10 -9 10 -23 -3 -15 -13 -23 -14 -39 -5 -24 12 -19 30 7 31 13 0 11 3
-6 11 -19 10 -27 7 -50 -15 -34 -32 -46 -33 -120 -7 -31 11 -102 25 -157 31
-146 14 -137 10 -188 97 -43 72 -46 83 -44 140 1 34 3 62 4 62 23 1 93 -85 93
-115 0 -8 10 -31 23 -52 l22 -38 5 40 c4 33 8 39 25 37 32 -6 45 -22 39 -47
-5 -21 -2 -24 39 -30 70 -11 150 5 162 32 5 12 19 24 30 25 15 2 6 10 -33 30
-52 26 -58 47 -8 28 20 -7 26 -6 26 5 0 14 -23 21 -100 29 -46 6 -90 15 -115
26 -11 4 -39 13 -63 19 -23 7 -60 29 -83 50 -37 33 -40 40 -30 59 14 26 18 26
52 8z m-753 -52 c-3 -14 -22 -27 -80 -55 -22 -11 -46 -2 -58 22 -12 22 -5 27
52 38 70 14 90 13 86 -5z m97 -4 c17 -4 47 -15 68 -25 21 -10 47 -15 60 -11
15 3 30 -1 43 -12 20 -19 26 -22 47 -22 6 0 28 -14 47 -30 19 -16 39 -30 44
-30 5 0 2 -7 -5 -16 -11 -14 -11 -18 1 -28 15 -11 25 -36 15 -36 -3 0 -24 9
-45 19 -41 20 -108 21 -119 2 -4 -6 -25 -15 -46 -20 -22 -5 -32 -9 -22 -10 10
-1 15 -6 12 -12 -4 -6 -4 -26 0 -45 5 -30 13 -38 58 -59 29 -13 78 -29 109
-35 86 -17 111 -50 57 -77 -19 -10 -28 -9 -46 2 -12 8 -33 15 -46 15 -13 0
-27 3 -31 7 -3 4 -14 7 -24 8 -48 4 -84 19 -101 41 -10 13 -24 24 -29 24 -6 0
-19 11 -30 25 -11 14 -29 25 -41 25 -12 0 -25 8 -28 18 -4 9 -22 36 -40 60
-18 24 -33 48 -33 53 0 5 20 9 44 9 33 0 52 7 75 26 17 14 29 29 26 34 -2 4
-22 10 -44 14 -44 7 -52 19 -39 55 5 14 6 31 3 39 -4 10 -1 12 12 7 10 -4 32
-11 48 -15z m1625 -74 c0 -8 -113 -57 -118 -51 -4 4 40 25 98 48 21 8 20 7 20
3z m60 -43 l35 -5 -55 -22 c-30 -12 -64 -26 -75 -33 -16 -9 -25 -8 -43 7 l-23
19 42 18 c48 21 69 24 119 16z m-1822 -27 c-2 -27 -12 -25 -28 5 -9 16 -7 19
10 19 15 0 19 -6 18 -24z m1876 -39 c-5 -13 -10 -15 -53 -19 -11 -1 -19 -5
-19 -8 0 -3 -1 -8 -2 -12 -1 -5 -3 -18 -4 -30 0 -13 -7 -23 -16 -23 -8 0 -14
8 -14 17 1 10 -2 16 -6 13 -4 -2 -15 2 -25 9 -17 12 -16 14 17 25 20 7 49 14
65 17 15 3 32 9 38 15 13 13 25 11 19 -4z m-1314 -32 c0 -8 -4 -15 -10 -15 -5
0 -10 7 -10 15 0 8 5 15 10 15 6 0 10 -7 10 -15z m1265 -15 c-3 -5 -12 -10
-18 -10 -7 0 -6 4 3 10 19 12 23 12 15 0z m-84 -95 c-1 -15 -24 -12 -29 3 -3
9 2 13 12 10 10 -1 17 -7 17 -13z m-1093 -14 c3 -8 -1 -12 -9 -9 -7 2 -15 10
-17 17 -3 8 1 12 9 9 7 -2 15 -10 17 -17z m-223 -1 c3 -5 1 -10 -4 -10 -6 0
-11 5 -11 10 0 6 2 10 4 10 3 0 8 -4 11 -10z m145 -30 c6 9 13 5 25 -13 12
-19 19 -57 22 -128 6 -92 7 -98 19 -71 13 31 43 59 31 29 -3 -9 -1 -17 6 -20
7 -2 2 -15 -12 -36 -13 -18 -26 -29 -30 -23 -3 5 -53 17 -111 27 -58 10 -109
23 -115 30 -5 6 -16 10 -24 7 -8 -3 -11 0 -7 7 4 6 14 11 22 11 8 0 13 4 10 9
-8 12 41 32 61 24 10 -4 14 -3 9 5 -3 6 2 15 11 21 14 8 15 11 3 11 -9 1 -7 5
7 10 13 5 24 22 28 42 9 39 28 73 34 57 2 -8 6 -8 11 1z m1235 -28 c-11 -2
-26 -9 -32 -14 -9 -7 -13 -7 -13 0 0 16 31 31 49 24 13 -5 12 -7 -4 -10z m12
-42 c-6 -22 3 -26 21 -8 6 6 15 8 19 4 12 -12 -19 -26 -58 -26 -24 0 -39 5
-43 16 -4 11 -1 14 13 9 10 -3 24 1 31 10 17 21 23 19 17 -5z m-209 -2 c-7
-21 -89 -58 -127 -58 l-36 1 25 14 c14 8 34 14 45 15 11 0 34 9 50 19 35 23
48 26 43 9z m281 -39 c-40 -31 -57 -21 -19 11 20 16 37 24 39 18 2 -6 -7 -19
-20 -29z m-899 17 c0 -2 3 -12 6 -21 5 -13 2 -16 -17 -13 -15 2 -23 9 -21 18
3 12 1 13 -9 3 -18 -18 -30 -16 -23 2 5 13 64 23 64 11z m278 -23 c2 -7 -7
-17 -21 -22 -14 -5 -27 -21 -31 -35 -7 -28 -16 -30 -78 -20 -35 6 -54 24 -25
24 7 0 31 16 52 35 29 28 46 35 69 33 16 -2 31 -9 34 -15z m32 -22 c0 -5 -7
-11 -14 -14 -10 -4 -13 -1 -9 9 6 15 23 19 23 5z m-780 -192 c0 -5 -9 -9 -20
-9 -19 0 -26 11 -14 23 8 8 34 -3 34 -14z m171 -44 l52 -55 24 22 c31 29 41
16 14 -18 -25 -31 -20 -45 7 -21 28 25 37 20 17 -9 -18 -28 -21 -22 43 -94 12
-13 22 -28 22 -33 0 -8 -3 -6 -63 44 -31 26 -40 29 -52 19 -13 -11 -6 -21 49
-71 48 -45 63 -64 59 -79 -3 -11 -8 -20 -11 -20 -3 0 -36 27 -73 60 -37 33
-72 60 -78 60 -6 0 -11 7 -11 15 0 8 -7 15 -15 15 -8 0 -15 7 -15 15 0 9 -7
18 -15 21 -10 4 -15 19 -15 43 l0 36 25 -32 c16 -20 31 -30 40 -26 24 9 17 27
-25 68 -28 27 -40 48 -40 67 0 15 2 28 4 28 3 0 28 -25 57 -55z m-211 -30 l-8
-40 -1 36 c0 20 2 39 6 42 11 11 11 4 3 -38z m-180 -15 c0 -5 -2 -10 -4 -10
-3 0 -8 5 -11 10 -3 6 -1 10 4 10 6 0 11 -4 11 -10z m170 -45 c91 -14 129 -36
42 -25 -51 6 -72 15 -72 31 0 6 6 7 13 2 6 -4 14 -8 17 -8z m-200 -45 c0 -5
-5 -10 -11 -10 -5 0 -7 5 -4 10 3 6 8 10 11 10 2 0 4 -4 4 -10z m640 -60 c0
-5 -2 -10 -4 -10 -3 0 -8 5 -11 10 -3 6 -1 10 4 10 6 0 11 -4 11 -10z m47
-142 c-3 -8 -6 -5 -6 6 -1 11 2 17 5 13 3 -3 4 -12 1 -19z m73 -128 c0 -5 -4
-10 -9 -10 -6 0 -13 5 -16 10 -3 6 1 10 9 10 9 0 16 -4 16 -10z m-840 -16 c0
-8 -5 -12 -10 -9 -6 4 -8 11 -5 16 9 14 15 11 15 -7z m880 -74 c0 -5 -2 -10
-4 -10 -3 0 -8 5 -11 10 -3 6 -1 10 4 10 6 0 11 -4 11 -10z m-916 -75 c-4 -8
-8 -15 -10 -15 -2 0 -4 7 -4 15 0 8 4 15 10 15 5 0 7 -7 4 -15z m1016 -95 c0
-5 -4 -10 -10 -10 -5 0 -10 5 -10 10 0 6 5 10 10 10 6 0 10 -4 10 -10z m25
-40 c3 -5 1 -10 -4 -10 -6 0 -11 5 -11 10 0 6 2 10 4 10 3 0 8 -4 11 -10z
m-1095 -50 c0 -5 -5 -10 -11 -10 -5 0 -7 5 -4 10 3 6 8 10 11 10 2 0 4 -4 4
-10z m1155 -40 c3 -5 2 -10 -4 -10 -5 0 -13 5 -16 10 -3 6 -2 10 4 10 5 0 13
-4 16 -10z m-1185 -50 c0 -5 -5 -10 -11 -10 -5 0 -7 5 -4 10 3 6 8 10 11 10 2
0 4 -4 4 -10z m1245 -30 c3 -5 1 -10 -4 -10 -6 0 -11 5 -11 10 0 6 2 10 4 10
3 0 8 -4 11 -10z m100 -110 c3 -5 1 -10 -4 -10 -6 0 -11 5 -11 10 0 6 2 10 4
10 3 0 8 -4 11 -10z m40 -29 c3 -5 1 -12 -5 -16 -5 -3 -10 1 -10 9 0 18 6 21
15 7z"/>
<path d="M2793 5918 c-29 -11 -51 -24 -48 -28 2 -4 -8 -5 -23 -4 -15 2 -21 1
-14 -2 15 -7 6 -24 -14 -24 -8 0 -33 12 -57 27 -37 25 -51 28 -127 27 -132 0
-171 -5 -214 -25 l-41 -19 60 7 c104 12 216 6 275 -14 64 -22 144 -16 207 15
51 26 123 42 206 46 114 5 87 16 -39 15 -96 0 -129 -4 -171 -21z"/>
<path d="M2430 5861 c0 -6 5 -13 10 -16 6 -3 10 -2 10 4 0 5 10 12 23 14 16 3
13 5 -10 6 -18 0 -33 -3 -33 -8z"/>
<path d="M1476 5923 c-15 -16 -3 -29 37 -38 55 -13 239 -4 244 12 4 11 -6 12
-208 27 -37 3 -69 2 -73 -1z"/>
<path d="M1498 5803 c-16 -2 -28 -9 -28 -14 0 -10 34 -12 173 -10 l42 1 -29
15 c-27 14 -95 17 -158 8z"/>
<path d="M1728 5799 c-24 -13 -23 -29 2 -29 13 0 20 7 20 20 0 23 1 23 -22 9z"/>
<path d="M445 5700 c4 -6 11 -8 16 -5 14 9 11 15 -7 15 -8 0 -12 -5 -9 -10z"/>
<path d="M2788 4197 c-32 -27 -56 -69 -34 -61 12 5 72 84 64 84 -2 0 -15 -10
-30 -23z"/>
<path d="M2342 4105 c0 -16 2 -22 5 -12 2 9 2 23 0 30 -3 6 -5 -1 -5 -18z"/>
<path d="M2783 3991 c1 -6 -29 -46 -67 -91 l-68 -81 23 -25 c12 -13 27 -23 31
-22 14 5 128 152 128 166 0 17 -30 62 -41 62 -5 0 -8 -4 -6 -9z"/>
<path d="M2740 3974 c0 -8 5 -12 10 -9 6 4 8 11 5 16 -9 14 -15 11 -15 -7z"/>
<path d="M2856 3892 c-4 -10 -33 -50 -65 -88 l-59 -69 66 -70 c36 -38 68 -71
72 -73 6 -3 46 60 43 69 -1 3 -7 54 -13 113 -6 58 -13 113 -16 121 -8 20 -21
19 -28 -3z"/>
<path d="M2590 3827 c0 -16 68 -97 81 -97 19 0 7 23 -36 66 -25 24 -45 38 -45
31z"/>
<path d="M2584 3747 c3 -13 8 -92 11 -175 l6 -151 40 -40 40 -39 76 95 76 95
-71 71 c-62 62 -73 69 -87 57 -9 -7 -15 -9 -14 -4 4 20 -2 35 -11 29 -6 -3 -7
1 -4 10 4 10 -4 27 -22 46 -34 35 -48 37 -40 6z"/>
<path d="M2710 3697 c0 -7 32 -44 70 -82 90 -89 97 -61 8 31 -61 64 -78 75
-78 51z"/>
<path d="M2901 3592 c-14 -26 -7 -42 10 -25 6 6 9 19 7 29 -3 17 -5 17 -17 -4z"/>
<path d="M2866 3541 c-4 -7 -5 -15 -2 -18 9 -9 19 4 14 18 -4 11 -6 11 -12 0z"/>
<path d="M2897 3513 c-3 -4 3 -19 14 -32 18 -22 19 -22 19 -3 0 21 -25 48 -33
35z"/>
<path d="M2770 3419 c-44 -55 -68 -95 -63 -100 6 -6 21 7 40 33 17 24 49 65
72 93 22 27 41 53 41 57 0 23 -26 -1 -90 -83z"/>
<path d="M2600 3326 c0 -26 24 -51 40 -41 15 10 12 30 -8 48 -25 23 -32 21
-32 -7z"/>
<path d="M2661 3276 c-8 -9 -11 -19 -7 -23 9 -9 29 13 24 27 -2 8 -8 7 -17 -4z"/>
<path d="M2690 3244 c-12 -14 -5 -24 60 -82 41 -37 78 -67 84 -67 29 0 7 37
-59 98 -64 60 -73 66 -85 51z"/>
<path d="M2596 3207 c8 -28 11 -30 23 -22 18 10 12 32 -9 38 -18 4 -20 2 -14
-16z"/>
<path d="M2637 3176 c-8 -20 235 -252 253 -241 12 8 -7 43 -37 68 -12 10 -61
56 -109 102 -47 47 -90 85 -94 85 -4 0 -10 -6 -13 -14z"/>
<path d="M2873 3064 c-3 -9 3 -24 15 -37 18 -17 23 -18 37 -7 14 12 14 15 -6
37 -26 27 -37 29 -46 7z"/>
<path d="M2610 2727 c0 -16 32 -47 48 -47 19 0 14 14 -11 38 -27 25 -37 28
-37 9z"/>
<path d="M2688 2654 c14 -26 51 -59 58 -51 9 8 -3 23 -37 48 -28 20 -30 20
-21 3z"/>
<path d="M899 4810 c-24 -26 -24 -28 -7 -39 24 -15 28 -14 28 8 0 11 7 26 15
35 18 18 19 26 3 25 -7 -1 -25 -14 -39 -29z"/>
<path d="M815 4740 c-3 -5 -1 -10 4 -10 6 0 11 5 11 10 0 6 -2 10 -4 10 -3 0
-8 -4 -11 -10z"/>
<path d="M859 4722 c-22 -3 -28 -9 -31 -38 -3 -29 -1 -34 17 -34 12 0 32 11
45 25 21 22 22 27 9 38 -8 7 -26 11 -40 9z"/>
<path d="M1117 4223 c-4 -3 -7 -11 -7 -17 0 -6 5 -5 12 2 6 6 9 14 7 17 -3 3
-9 2 -12 -2z"/>
<path d="M370 4531 c0 -13 26 -32 33 -24 8 7 -11 33 -24 33 -5 0 -9 -4 -9 -9z"/>
<path d="M2705 2901 c-3 -5 -1 -12 5 -16 5 -3 10 1 10 9 0 18 -6 21 -15 7z"/>
<path d="M2655 2839 c-11 -17 1 -21 15 -4 8 9 8 15 2 15 -6 0 -14 -5 -17 -11z"/>
<path d="M2041 2081 c-10 -7 -7 -9 12 -8 14 1 23 5 20 10 -6 9 -15 9 -32 -2z"/>
<path d="M2090 2079 c0 -5 5 -7 10 -4 6 3 10 8 10 11 0 2 -4 4 -10 4 -5 0 -10
-5 -10 -11z"/>
<path d="M2802 1048 c-14 -14 -16 -28 -2 -28 5 0 14 9 20 20 12 22 1 27 -18 8z"/>
<path d="M0 6246 c0 -31 5 -56 10 -56 6 0 10 22 10 49 0 28 -4 53 -10 56 -6 4
-10 -15 -10 -49z"/>
<path d="M3960 5880 c0 -5 5 -10 11 -10 5 0 7 5 4 10 -3 6 -8 10 -11 10 -2 0
-4 -4 -4 -10z"/>
<path d="M3960 5829 c0 -11 5 -17 10 -14 6 3 10 13 10 21 0 8 -4 14 -10 14 -5
0 -10 -9 -10 -21z"/>
<path d="M5293 5683 c9 -9 19 -14 23 -11 10 10 -6 28 -24 28 -15 0 -15 -1 1
-17z"/>
<path d="M5277 5510 c-4 -15 0 -20 13 -20 25 0 36 20 19 31 -21 13 -26 11 -32
-11z"/>
<path d="M3936 5495 c4 -8 10 -15 15 -15 5 0 9 7 9 15 0 8 -7 15 -15 15 -9 0
-12 -6 -9 -15z"/>
<path d="M5403 5490 c-10 -11 -23 -20 -29 -20 -6 0 -14 -9 -17 -20 -4 -16 -13
-20 -44 -20 -21 1 -55 7 -76 14 l-38 14 7 -31 c9 -45 12 -47 42 -36 15 6 66
11 114 12 l88 2 0 53 c0 58 -16 69 -47 32z"/>
<path d="M3930 5425 c-9 -11 -10 -18 -1 -29 16 -19 4 -43 -30 -58 -16 -7 -27
-18 -25 -25 3 -6 1 -13 -4 -15 -5 -2 -6 -9 -1 -16 4 -8 34 -14 75 -16 65 -4
67 -3 51 14 -9 10 -14 24 -10 30 4 6 2 17 -5 25 -6 8 -10 33 -8 57 2 32 -1 43
-13 46 -9 1 -22 -4 -29 -13z"/>
<path d="M5190 5315 c-7 -8 -8 -15 -2 -15 5 0 15 7 22 15 7 8 8 15 2 15 -5 0
-15 -7 -22 -15z"/>
<path d="M3830 5290 c-9 -6 -10 -10 -3 -10 6 0 15 5 18 10 8 12 4 12 -15 0z"/>
<path d="M3490 4800 c8 -5 20 -10 25 -10 6 0 3 5 -5 10 -8 5 -19 10 -25 10 -5
0 -3 -5 5 -10z"/>
<path d="M5256 4774 c-11 -27 -7 -37 9 -24 16 14 20 40 6 40 -5 0 -12 -7 -15
-16z"/>
<path d="M4916 4725 c4 -8 10 -15 15 -15 4 0 6 7 3 15 -4 8 -10 15 -15 15 -4
0 -6 -7 -3 -15z"/>
<path d="M4425 4668 c-16 -39 -6 -55 24 -36 16 10 23 10 29 1 11 -18 67 -21
67 -3 0 15 -72 69 -93 70 -7 0 -19 -15 -27 -32z"/>
<path d="M4540 3920 c0 -11 5 -20 10 -20 6 0 10 9 10 20 0 11 -4 20 -10 20 -5
0 -10 -9 -10 -20z"/>
<path d="M5380 3906 c0 -2 7 -6 15 -10 8 -3 15 -1 15 4 0 6 -7 10 -15 10 -8 0
-15 -2 -15 -4z"/>
<path d="M5435 3901 c-3 -5 -1 -12 5 -16 5 -3 10 1 10 9 0 18 -6 21 -15 7z"/>
<path d="M5335 540 c-3 -5 -2 -10 4 -10 5 0 13 5 16 10 3 6 2 10 -4 10 -5 0
-13 -4 -16 -10z"/>
</g>
</svg>
